<?xml version="1.0" encoding="iso-8859-1"?>
<!-- Generator: Adobe Illustrator 19.0.0, SVG Export Plug-In . SVG Version: 6.00 Build 0)  -->
<svg version="1.1" id="Capa_1" xmlns="http://www.w3.org/2000/svg" xmlns:xlink="http://www.w3.org/1999/xlink" x="0px" y="0px"
	 viewBox="0 0 439.909 439.909" style="enable-background:new 0 0 439.909 439.909;" xml:space="preserve">
<g id="XMLID_524_">
	<path id="XMLID_530_" d="M289.859,218.165c-12.238-12.083-28.92-18.736-46.975-18.736c-0.739,0-1.469,0.011-2.191,0.034
		c-4.751-18.989-9.194-34.531-12.219-44.64c-1.258-4.203-2.437-8.269-3.54-12.192c13.877-15.22,26.345-29.841,33.266-44.593
		c19.623-41.823,10.708-66.709,3.647-77.821C253.684,7.369,240.237,0,224.955,0c-13.893,0-25.356,5.533-33.149,16
		c-15.284,20.528-15.407,58.521-0.127,118.479c-29.22,31.773-60.724,67.762-60.724,112.562c0,47.333,25.917,70.548,47.66,81.688
		c22.534,11.546,45.015,12.242,45.961,12.266l0.379,0.005c3.073,0,6.112-0.127,9.109-0.378l0.103,1.491
		c1.335,19.236,2.489,35.849,0.003,50.352c-2.37,13.822-11.714,18.001-19.006,17.382c-3.07-0.261-10.21-1.744-10.21-9.848h-30
		c0,21.169,15.841,37.883,37.666,39.74c1.33,0.113,2.656,0.17,3.98,0.17c10.054-0.001,19.84-3.24,27.914-9.306
		c10.179-7.647,16.827-19.082,19.225-33.069c3.095-18.055,1.826-36.334,0.356-57.5l-0.317-4.583
		c-0.043-0.64-0.088-1.279-0.135-1.919c6.901-2.901,13.235-6.612,18.807-11.07c17.339-13.872,26.504-33.742,26.504-57.463
		C308.955,246.956,302.173,230.323,289.859,218.165z M215.868,33.916c1.515-2.034,3.663-3.916,9.086-3.916
		c3.451,0,8.261,1.094,11.573,6.307c2.361,3.716,8.945,18.232-5.486,48.989c-3.165,6.746-8.459,14.108-14.908,21.894
		C205.458,56.316,211.865,39.292,215.868,33.916z M225.237,311c-1.764-0.087-18.08-1.109-33.732-9.38
		c-20.557-10.862-30.55-28.715-30.55-54.579c0-27.928,19.13-54.306,40.316-78.423c2.907,9.939,6.715,23.599,10.722,39.708
		c-12.94,9.11-19.038,23.895-19.038,38.007c0,11.36,4.616,21.066,12.997,27.331c6.43,4.806,14.077,6.893,21.186,7.503
		c1.587,9.726,3.009,19.631,4.186,29.57C229.28,310.906,227.245,310.992,225.237,311z M260.389,301.351
		c-3.197-25.015-7.776-49.574-12.6-71.639c18.327,2.149,31.166,16.328,31.166,35.288
		C278.955,282.468,271.257,294.136,260.389,301.351z"/>
</g>
<g>
</g>
<g>
</g>
<g>
</g>
<g>
</g>
<g>
</g>
<g>
</g>
<g>
</g>
<g>
</g>
<g>
</g>
<g>
</g>
<g>
</g>
<g>
</g>
<g>
</g>
<g>
</g>
<g>
</g>
</svg>
